HIERARCHY
ROOT Hips
{
  OFFSET 0.000000 0.000000 0.000000
  CHANNELS 6 Xposition Yposition Zposition Zrotation Xrotation Yrotation
  JOINT Spine
  {
    OFFSET -0.004279 0.082255 -0.012354
    CHANNELS 3 Zrotation Xrotation Yrotation
    JOINT Spine1
    {
      OFFSET -0.016761 0.114982 -0.020640
      CHANNELS 3 Zrotation Xrotation Yrotation
      JOINT Spine2
      {
        OFFSET -0.016818 0.133492 -0.029232
        CHANNELS 3 Zrotation Xrotation Yrotation
        JOINT Neck
        {
          OFFSET -0.021696 0.134468 -0.020126
          CHANNELS 3 Zrotation Xrotation Yrotation
          JOINT Head
          {
            OFFSET -0.043307 0.090494 -0.083544
            CHANNELS 3 Zrotation Xrotation Yrotation
            End Site
            {
              OFFSET -0.012992 0.027148 -0.025063
            }
          }
        }
        JOINT LeftShoulder
        {
          OFFSET -0.007070 0.045689 -0.046516
          CHANNELS 3 Zrotation Xrotation Yrotation
          JOINT LeftArm
          {
            OFFSET 0.110265 0.010911 -0.123529
            CHANNELS 3 Zrotation Xrotation Yrotation
            JOINT LeftForeArm
            {
              OFFSET 0.225779 -0.124962 -0.032504
              CHANNELS 3 Zrotation Xrotation Yrotation
              JOINT LeftForeArmRoll
              {
                OFFSET -0.017544 -0.056005 -0.114083
                CHANNELS 3 Zrotation Xrotation Yrotation
                JOINT LeftHand
                {
                  OFFSET -0.017544 -0.056005 -0.114083
                  CHANNELS 3 Zrotation Xrotation Yrotation
                  End Site
                  {
                    OFFSET -0.005263 -0.016801 -0.034225
                  }
                }
              }
            }
          }
        }
        JOINT RightShoulder
        {
          OFFSET -0.044675 0.044715 -0.005466
          CHANNELS 3 Zrotation Xrotation Yrotation
          JOINT RightArm
          {
            OFFSET -0.116167 -0.007886 0.123545
            CHANNELS 3 Zrotation Xrotation Yrotation
            JOINT RightForeArm
            {
              OFFSET -0.080455 -0.175605 0.156422
              CHANNELS 3 Zrotation Xrotation Yrotation
              JOINT RightForeArmRoll
              {
                OFFSET -0.052905 -0.122504 0.038018
                CHANNELS 3 Zrotation Xrotation Yrotation
                JOINT RightHand
                {
                  OFFSET -0.052905 -0.122504 0.038018
                  CHANNELS 3 Zrotation Xrotation Yrotation
                  End Site
                  {
                    OFFSET -0.015872 -0.036751 0.011405
                  }
                }
              }
            }
          }
        }
      }
    }
  }
  JOINT LeftUpLeg
  {
    OFFSET 0.043627 -0.065641 -0.095028
    CHANNELS 3 Zrotation Xrotation Yrotation
    JOINT LeftLeg
    {
      OFFSET -0.123260 -0.510667 0.082393
      CHANNELS 3 Zrotation Xrotation Yrotation
      JOINT LeftFoot
      {
        OFFSET 0.065185 -0.463193 0.200436
        CHANNELS 3 Zrotation Xrotation Yrotation
        JOINT LeftToeBase
        {
          OFFSET -0.065490 -0.009531 -0.098698
          CHANNELS 3 Zrotation Xrotation Yrotation
          End Site
          {
            OFFSET -0.019647 -0.002859 -0.029610
          }
        }
      }
    }
  }
  JOINT RightUpLeg
  {
    OFFSET -0.081212 -0.025975 0.089289
    CHANNELS 3 Zrotation Xrotation Yrotation
    JOINT RightLeg
    {
      OFFSET -0.177681 -0.496298 0.048099
      CHANNELS 3 Zrotation Xrotation Yrotation
      JOINT RightFoot
      {
        OFFSET 0.135614 -0.443315 0.186312
        CHANNELS 3 Zrotation Xrotation Yrotation
        JOINT RightToeBase
        {
          OFFSET -0.087273 -0.037052 -0.064678
          CHANNELS 3 Zrotation Xrotation Yrotation
          End Site
          {
            OFFSET -0.026182 -0.011116 -0.019403
          }
        }
      }
    }
  }
}
MOTION
Frames: 7
Frame Time: 0.010000
0.347739 1.099611 0.513279 -0.000000 -0.000000 -0.000000 0.000000 -0.000000 0.000000 0.000000 -0.000000 -0.000000 0.000000 0.000000 -0.000000 0.000000 -0.000000 0.000000 0.000000 0.000000 -0.000000 0.000000 0.000000 -0.000000 0.000000 -0.000000 0.000000 0.000000 -0.000000 0.000000 0.000000 -0.000000 0.000000 0.000000 -0.000000 0.000000 0.000000 -0.000000 0.000000 0.000000 -0.000000 0.000000 0.000000 0.000000 0.000000 -0.000000 -0.000000 -0.000000 0.000000 -0.000000 0.000000 0.000000 0.000000 -0.000000 0.000000 0.000000 0.000000 -0.000000 0.000000 0.000000 0.000000 -0.000000 0.000000 0.000000 -0.000000 0.000000 0.000000 -0.000000 0.000000 0.000000 0.000000 0.000000 0.000000 -0.000000 0.000000
0.336763 1.098964 0.514765 2.193378 -0.203797 -0.889350 -1.256316 -0.112316 0.747544 0.112770 0.153741 -0.065189 0.489308 -0.280782 0.279725 -1.158537 -0.068421 -0.467068 -0.028847 -0.034452 0.737874 -1.591196 0.168520 -0.234919 2.526150 0.259802 1.348694 -1.820439 -0.500358 3.852741 -0.851022 -1.893132 0.303843 1.090689 1.793651 0.475067 -0.059443 0.263502 -0.039563 -0.648962 -0.194247 -2.463585 0.415109 -0.090280 0.992269 0.800607 -0.250773 -0.345991 0.443880 0.690390 0.327531 0.837938 -1.228439 0.711290 -0.078869 0.860328 -0.218558 2.375954 -1.604822 -1.024054 -0.929721 -0.365465 0.161707 2.058645 1.270956 0.271175 0.312153 2.439665 -0.180689 6.960944 5.360578 2.160427 1.840477 6.336664 1.407966
0.325711 1.097889 0.515698 4.124149 -0.121880 -1.022321 -1.931719 -0.650755 0.355449 -0.180246 -0.000244 -0.095944 0.434171 -0.290428 0.417475 -1.792835 0.183300 0.236463 -0.134616 0.196771 1.119638 -1.279872 -0.246810 -0.978032 4.167351 -0.226431 4.318906 -4.116176 -1.219615 6.902854 -0.937651 -2.300484 0.374113 1.199643 3.270875 0.793702 -0.231007 0.561188 -0.239115 -1.127770 -0.340177 -3.561297 0.538608 -0.284239 1.420357 0.958277 -0.296081 -0.417014 0.691175 0.878246 0.502794 0.813527 -2.476637 0.503468 -0.046076 1.730605 0.125972 4.240864 -2.560055 -1.569946 -1.200184 -0.798917 0.279207 3.052531 1.552548 0.806317 0.485771 5.303830 -0.138071 12.842720 10.307207 4.271718 4.186140 13.731459 4.576824
0.316610 1.097267 0.517642 4.717408 -1.460758 -1.610026 -1.412156 0.060315 0.578186 -0.088695 0.287981 0.057203 0.355728 -0.471308 0.472576 -2.367120 0.326592 0.572548 -0.243172 0.303413 1.542522 -1.187309 -0.344870 -1.511262 5.376436 -0.279708 7.091654 -5.632231 -2.063971 10.232288 -0.994963 -2.736461 0.441458 1.253965 4.638323 1.084011 -0.319595 0.551965 -0.610896 -1.947810 -0.557378 -4.880868 0.552489 -0.469341 1.845836 0.920838 -0.283583 -0.410121 0.790531 1.081835 0.565700 1.681240 -2.397050 1.193790 0.532632 2.561683 0.420500 6.166010 -3.517634 -2.287552 -1.378579 -1.164361 0.384641 3.793093 3.492076 0.546372 0.228451 7.118110 0.696998 16.892624 13.463758 4.217357 5.886236 18.146287 4.824438
0.305410 1.097058 0.518320 6.634670 -1.610671 -1.850237 -1.725632 -0.022079 0.338010 -0.653308 -0.111507 -0.395020 -0.017250 -0.536132 0.521598 -2.824110 0.559530 1.835452 -0.264778 0.559874 2.236497 -0.929409 -0.957900 -3.872466 8.399082 -2.499721 11.092141 -8.235378 -2.581647 13.807462 -0.962321 -2.993839 0.481198 1.213353 6.037157 1.585404 -0.714463 0.558020 -0.150479 -2.167702 -0.312603 -5.859489 0.576157 -0.637206 2.178564 0.938375 -0.285281 -0.423488 0.959013 1.243667 0.639694 1.271274 -3.465941 1.176260 0.055863 3.555859 0.962624 7.299638 -3.870883 -2.430112 -1.791724 -1.494895 0.442414 4.293563 4.209843 1.254650 0.357457 9.363030 1.272208 22.058083 17.210899 6.299249 8.215847 23.643740 7.761547
0.294862 1.096193 0.519341 8.115741 -2.245435 -2.118551 -2.029024 0.262556 0.245174 -0.821926 -0.031927 -0.413884 0.324838 -0.570420 0.811664 -3.696017 0.389257 1.573255 -0.433048 0.460893 2.512540 -1.073512 -1.738207 -5.246960 10.511522 -1.933282 14.753696 -8.280123 -3.572324 18.106153 -0.960331 -3.525017 0.527511 1.927005 7.416070 1.874205 -0.767507 0.494160 -0.314411 -2.696378 -0.799183 -7.578951 0.497755 -0.827350 2.572113 0.690671 -0.207026 -0.334233 0.919992 1.553582 0.514889 1.414745 -4.005868 1.412847 -0.367726 4.447704 1.226628 8.467889 -4.280503 -2.638979 -2.176724 -1.861433 0.497934 5.176109 5.217746 1.374155 0.524139 11.078722 2.029642 27.621006 20.720178 9.704295 10.884018 28.639738 11.998933
0.283997 1.095245 0.520033 9.852214 -2.536674 -2.113730 -2.351111 0.284986 -0.264310 -1.162110 0.253982 -0.813455 0.396682 -1.068212 1.023403 -4.623018 -0.090612 2.483186 -0.500073 0.672620 2.910278 -1.002937 -1.891424 -5.682138 12.239063 -1.550167 17.290733 -8.676535 -3.696458 22.141749 -0.972962 -4.250375 0.627645 2.401719 8.931602 2.107336 -1.000940 0.431075 -0.879567 -3.499988 -1.086922 -8.001342 0.127423 -1.024432 2.227536 0.507151 -0.135306 -0.275574 1.147559 1.599940 0.516761 0.966556 -4.702920 1.332310 -1.116637 5.251816 1.591260 9.101067 -4.297797 -2.357177 -2.512276 -2.242941 0.543575 5.427092 5.837660 2.076000 0.676595 12.892378 2.987115 32.639462 23.660749 12.312756 13.830759 33.137177 15.975672
